<?xml version="1.0" standalone="no"?>
<!DOCTYPE svg PUBLIC "-//W3C//DTD SVG 20010904//EN"
 "http://www.w3.org/TR/2001/REC-SVG-20010904/DTD/svg10.dtd">
<svg version="1.0" xmlns="http://www.w3.org/2000/svg"
 width="1280.000000pt" height="1280.000000pt" viewBox="0 0 1280.000000 1280.000000"
 preserveAspectRatio="xMidYMid meet">
<metadata>
Created by potrace 1.15, written by Peter Selinger 2001-2017
</metadata>
<g transform="translate(0.000000,1280.000000) scale(0.100000,-0.100000)"
fill="#000000" stroke="none">
<path d="M5487 12583 c-6 -237 -28 -382 -83 -535 -84 -232 -195 -381 -399
-533 -173 -129 -272 -254 -340 -430 -80 -209 -101 -392 -70 -595 41 -270 166
-469 352 -560 62 -31 180 -62 196 -52 11 5 7 35 -22 166 -69 319 -68 627 2
781 14 28 56 88 94 131 162 186 256 319 338 484 210 419 216 837 17 1263 -31
67 -50 97 -62 97 -16 0 -18 -21 -23 -217z"/>
<path d="M7310 12792 c0 -4 18 -52 40 -105 90 -221 126 -427 117 -677 -8 -237
-51 -409 -153 -613 -53 -107 -87 -160 -206 -325 -208 -290 -334 -551 -383
-787 -26 -124 -22 -297 9 -416 50 -197 158 -378 330 -556 75 -78 91 -81 82
-15 -31 238 -36 570 -10 740 27 186 87 327 169 402 46 42 159 189 234 305 173
266 286 555 322 821 18 137 7 357 -24 476 -48 184 -120 331 -238 487 -108 145
-289 309 -289 263z"/>
<path d="M4166 10458 c-3 -7 -7 -83 -10 -168 -19 -492 -126 -905 -283 -1092
-26 -32 -75 -90 -109 -130 -280 -333 -460 -818 -424 -1139 19 -166 73 -283
180 -390 58 -58 88 -77 260 -164 224 -114 352 -196 409 -263 56 -65 104 -160
165 -325 28 -77 57 -142 63 -144 30 -10 75 193 75 342 1 202 -53 339 -176 455
-186 175 -293 281 -347 347 -185 224 -243 431 -165 585 15 30 77 107 143 178
306 330 439 571 483 871 17 118 8 355 -19 478 -30 135 -92 312 -157 450 -52
111 -78 142 -88 109z"/>
<path d="M5779 9808 c-294 -210 -457 -346 -665 -553 -89 -89 -197 -209 -243
-270 -97 -130 -192 -315 -215 -422 -39 -177 -15 -258 204 -713 226 -468 259
-563 268 -754 5 -141 -5 -202 -55 -304 -49 -100 -143 -198 -316 -329 -399
-301 -609 -474 -777 -643 -279 -279 -420 -538 -420 -774 0 -274 193 -611 510
-894 261 -233 611 -456 995 -635 165 -76 386 -167 408 -167 16 0 502 523 502
540 0 7 -46 38 -102 71 -344 198 -678 439 -889 642 -248 238 -354 419 -342
585 15 197 170 401 538 706 189 157 415 383 491 491 119 169 201 360 234 549
19 111 19 200 0 307 -35 202 -115 361 -323 646 -182 249 -247 361 -278 474
-24 86 -24 293 0 404 72 335 293 741 565 1037 33 36 61 71 61 77 0 26 -45 6
-151 -71z"/>
<path d="M7970 9691 c0 -10 11 -43 25 -73 99 -215 24 -460 -330 -1083 -121
-213 -155 -278 -196 -382 -126 -317 -117 -576 29 -846 83 -154 202 -309 468
-608 118 -134 152 -182 202 -287 36 -75 37 -80 37 -192 0 -111 -1 -118 -33
-183 -85 -173 -300 -325 -512 -362 -43 -8 -98 -24 -122 -36 -82 -42 -228 -202
-205 -226 4 -4 22 -1 40 6 257 105 398 113 772 45 418 -75 573 -54 729 103
165 164 188 352 65 528 -93 135 -214 239 -559 480 -124 87 -255 182 -292 212
-212 173 -280 318 -280 598 0 150 18 275 67 461 54 207 111 355 294 772 70
159 86 234 86 412 0 131 -4 168 -23 240 -39 145 -124 307 -210 402 -38 42 -52
47 -52 19z"/>
<path d="M6350 8683 c-252 -257 -370 -483 -370 -710 0 -123 19 -179 140 -408
127 -240 185 -360 218 -455 23 -67 26 -90 27 -210 0 -122 -2 -140 -24 -190
-62 -140 -130 -217 -341 -385 -391 -312 -592 -595 -650 -914 -16 -87 -13 -274
5 -360 57 -272 211 -534 469 -799 113 -117 253 -242 270 -242 16 0 409 433
414 456 2 8 -9 25 -25 37 -135 106 -293 275 -381 407 -85 129 -136 258 -153
391 -12 95 5 443 24 515 36 128 124 238 316 392 243 196 375 378 415 574 20
96 20 129 0 226 -22 111 -78 218 -198 376 -167 221 -253 409 -276 605 -30 246
68 535 261 770 15 19 26 38 23 43 -14 23 -50 -3 -164 -119z"/>
<path d="M9032 8060 c-262 -113 -422 -266 -453 -433 -13 -72 7 -170 54 -263
46 -90 82 -139 199 -271 155 -174 205 -255 234 -380 20 -85 14 -226 -14 -333
-17 -61 -18 -77 -7 -88 10 -12 22 -2 68 55 209 258 323 508 315 687 -4 109
-22 141 -168 311 -209 243 -260 331 -260 448 0 81 32 147 111 229 88 91 67
101 -79 38z"/>
<path d="M7202 6544 c-237 -70 -417 -214 -512 -409 -95 -193 -109 -368 -60
-740 67 -510 70 -583 36 -714 -38 -140 -144 -286 -400 -550 -305 -314 -436
-470 -582 -691 -138 -210 -225 -381 -309 -604 -105 -282 -165 -657 -152 -946
l6 -125 -19 25 c-37 47 -108 195 -135 280 -35 110 -44 265 -22 361 38 160 110
284 238 410 43 43 79 84 79 90 0 23 -73 -1 -214 -69 -520 -255 -763 -591 -681
-941 19 -78 159 -410 253 -597 220 -438 493 -703 957 -929 241 -118 456 -194
790 -280 327 -85 615 -134 615 -106 0 6 -26 33 -57 62 -374 341 -628 727 -683
1036 -17 97 -8 280 18 353 49 138 112 228 269 386 209 209 357 309 708 479
128 62 260 131 292 153 126 85 216 219 265 389 33 115 33 324 -1 441 -55 194
-187 387 -376 550 -121 104 -378 268 -408 260 -18 -4 -477 -496 -477 -510 0
-3 51 -30 113 -61 233 -115 347 -238 347 -376 0 -129 -57 -201 -324 -409 -482
-376 -674 -573 -795 -817 -57 -115 -85 -194 -108 -315 l-17 -84 -18 59 c-96
321 -138 750 -94 960 57 270 361 678 1031 1381 105 110 209 227 230 260 196
294 250 653 160 1059 -14 61 -65 231 -114 378 -101 301 -119 385 -102 468 23
109 107 217 276 354 61 50 92 81 88 91 -7 18 -12 18 -111 -12z"/>
<path d="M7512 4160 c-127 -18 -201 -49 -184 -77 4 -6 94 -80 200 -165 160
-128 201 -157 245 -168 134 -34 309 -125 391 -205 132 -126 155 -263 76 -434
-44 -93 -114 -182 -237 -301 -107 -104 -277 -315 -267 -331 14 -24 170 3 331
56 114 38 239 98 328 158 79 53 206 176 261 253 106 148 184 371 184 528 0
338 -294 574 -827 667 -133 23 -401 33 -501 19z"/>
<path d="M6396 3413 c-84 -91 -152 -172 -149 -179 6 -17 108 -27 190 -19 133
14 241 42 356 92 61 28 64 31 45 55 -29 34 -256 218 -271 218 -9 0 -86 -75
-171 -167z"/>
<path d="M5986 2868 c-58 -101 -126 -232 -126 -243 0 -16 120 -60 215 -80 87
-18 222 -19 297 -1 51 12 67 23 162 112 58 54 106 106 106 115 0 14 -22 17
-147 22 -137 6 -265 23 -338 45 -41 12 -112 49 -120 62 -11 19 -24 10 -49 -32z"/>
<path d="M8123 2134 c-194 -274 -366 -402 -713 -534 -173 -65 -213 -92 -283
-186 -207 -276 -213 -567 -20 -856 66 -98 196 -233 307 -318 126 -95 135 -94
111 20 -20 93 -19 246 1 324 44 172 172 323 450 531 83 62 168 133 188 157
155 180 197 409 126 689 -28 107 -82 233 -102 237 -12 2 -33 -19 -65 -64z"/>
</g>
</svg>
